<?xml version="1.0" standalone="no"?>
<!DOCTYPE svg PUBLIC "-//W3C//DTD SVG 20010904//EN"
 "http://www.w3.org/TR/2001/REC-SVG-20010904/DTD/svg10.dtd">
<svg version="1.0" xmlns="http://www.w3.org/2000/svg"
 width="162.000000pt" height="162.000000pt" viewBox="0 0 162.000000 162.000000"
 preserveAspectRatio="xMidYMid meet">
<metadata>
Created by potrace 1.11, written by Peter Selinger 2001-2013
</metadata>
<g transform="translate(0.000000,162.000000) scale(0.100000,-0.100000)"
fill="#000000" stroke="none">
<path d="M1155 1568 c-110 -39 -139 -195 -52 -277 28 -26 81 -31 130 -12 25
10 28 9 23 -6 -2 -10 -8 -54 -11 -97 -4 -44 -11 -90 -16 -103 -5 -12 -7 -23
-4 -23 7 0 -45 -182 -77 -270 -62 -173 -161 -340 -247 -417 -86 -78 -216 -93
-251 -29 -6 13 -12 43 -13 67 0 37 64 365 104 529 6 25 13 56 15 70 3 14 11
57 20 95 8 39 16 79 19 90 3 19 60 283 67 315 3 13 -30 15 -214 18 -127 1
-218 -1 -218 -7 0 -5 -11 -62 -25 -127 -14 -66 -46 -216 -70 -334 -25 -118
-48 -226 -51 -240 -3 -14 -8 -34 -10 -45 -2 -11 -17 -85 -34 -165 -17 -80 -32
-176 -34 -215 -10 -282 159 -414 473 -372 121 17 268 101 376 216 209 223 356
642 369 1051 5 146 -29 237 -101 276 -43 24 -121 29 -168 12z"/>
</g>
</svg>
