<?xml version="1.0" standalone="no"?>
<!DOCTYPE svg PUBLIC "-//W3C//DTD SVG 20010904//EN"
 "http://www.w3.org/TR/2001/REC-SVG-20010904/DTD/svg10.dtd">
<svg version="1.0" xmlns="http://www.w3.org/2000/svg"
 width="162.000000pt" height="162.000000pt" viewBox="0 0 162.000000 162.000000"
 preserveAspectRatio="xMidYMid meet">
<metadata>
Created by potrace 1.11, written by Peter Selinger 2001-2013
</metadata>
<g transform="translate(0.000000,162.000000) scale(0.100000,-0.100000)"
fill="#000000" stroke="none">
<path d="M1130 1558 c-61 -32 -82 -75 -78 -155 6 -106 59 -153 150 -135 l50
10 -7 -72 c-30 -311 -190 -703 -341 -836 -118 -103 -264 -92 -264 21 0 32 204
1034 226 1112 5 16 -10 17 -215 17 -221 0 -221 0 -226 -22 -53 -223 -218
-1044 -222 -1104 -12 -177 49 -295 184 -359 46 -22 77 -29 148 -32 295 -15
536 154 700 492 97 199 150 380 180 608 34 265 11 390 -84 454 -47 32 -139 32
-201 1z"/>
</g>
</svg>
